<svg id="Icons" height="512" viewBox="0 0 74 74" width="512" xmlns="http://www.w3.org/2000/svg"><path d="m25.527 31.33h-18.248a1 1 0 0 1 -.96-1.28l3.481-11.925a1 1 0 0 1 .96-.721h11.112a1 1 0 0 1 .956.707l3.655 11.926a1 1 0 0 1 -.956 1.293zm-16.915-2h15.562l-3.041-9.93h-9.627z"/><path d="m43.99 31.33h-18.248a1 1 0 0 1 -.96-1.28l3.477-11.925a1 1 0 0 1 .96-.721h11.116a1 1 0 0 1 .956.707l3.655 11.926a1 1 0 0 1 -.956 1.293zm-16.915-2h15.562l-3.037-9.93h-9.631z"/><path d="m34.669 19.4h-18.247a1 1 0 0 1 -.958-1.289l3.477-11.511a1 1 0 0 1 .95-.711l11.115-.089a.941.941 0 0 1 .962.7l3.655 11.6a1 1 0 0 1 -.954 1.3zm-16.9-2h15.537l-3.023-9.591-9.64.073z"/><path d="m51.8 69.255a18.864 18.864 0 1 1 18.867-18.863 18.884 18.884 0 0 1 -18.867 18.863zm0-35.727a16.864 16.864 0 1 0 16.867 16.864 16.883 16.883 0 0 0 -16.867-16.864z"/><path d="m51.8 64.533a14.142 14.142 0 1 1 14.145-14.141 14.157 14.157 0 0 1 -14.145 14.141zm0-26.283a12.142 12.142 0 1 0 12.145 12.142 12.155 12.155 0 0 0 -12.145-12.142z"/><path d="m51.8 57.773a4.2 4.2 0 0 1 -4.191-4.19 1 1 0 0 1 2 0 2.191 2.191 0 1 0 2.191-2.191 4.191 4.191 0 1 1 4.194-4.192 1 1 0 0 1 -2 0 2.191 2.191 0 1 0 -2.194 2.192 4.191 4.191 0 1 1 0 8.381z"/><path d="m51.8 45.01a1 1 0 0 1 -1-1v-.837a1 1 0 0 1 2 0v.837a1 1 0 0 1 -1 1z"/><path d="m51.8 58.609a1 1 0 0 1 -1-1v-.836a1 1 0 1 1 2 0v.836a1 1 0 0 1 -1 1z"/><path d="m27.949 68.315h-18.5a1 1 0 0 1 -1-1v-17.415a1 1 0 0 1 2 0v16.415h17.5a1 1 0 0 1 0 2z"/><path d="m13.173 55.132a1 1 0 0 1 -.751-.34l-2.973-3.381-2.973 3.381a1 1 0 1 1 -1.5-1.32l3.724-4.235a1.031 1.031 0 0 1 1.5 0l3.724 4.235a1 1 0 0 1 -.751 1.66z"/><path d="m64.551 25.1a1 1 0 0 1 -1-1v-16.415h-17.5a1 1 0 0 1 0-2h18.5a1 1 0 0 1 1 1v17.415a1 1 0 0 1 -1 1z"/><path d="m64.551 25.1a1 1 0 0 1 -.751-.34l-3.724-4.235a1 1 0 1 1 1.5-1.32l2.973 3.381 2.973-3.381a1 1 0 1 1 1.5 1.32l-3.722 4.238a1 1 0 0 1 -.749.337z"/></svg>